<?xml version="1.0" encoding="utf-8"?><svg xmlns="http://www.w3.org/2000/svg" xmlns:xlink="http://www.w3.org/1999/xlink"><symbol viewBox="0 0 100 50" id="curved" xmlns="http://www.w3.org/2000/svg"><path d="M99 0a36.33 36.33 0 00-29 15 25 25 0 01-40 0A36.33 36.33 0 001 0H0v50h100V0z"/></symbol><symbol viewBox="-21 -21 682.667 682.667" id="facebook" xmlns="http://www.w3.org/2000/svg"><path d="M604.672 0H35.297C15.8.012-.003 15.824 0 35.328v569.375C.012 624.2 15.824 640.003 35.328 640h306.547V392.5H258.75v-96.875h83.125v-71.293c0-82.676 50.473-127.676 124.223-127.676 35.324 0 65.68 2.633 74.527 3.809v86.41H489.77c-40.125 0-47.895 19.066-47.895 47.05v61.7h95.938l-12.5 96.875h-83.438V640h162.797c19.508.004 35.324-15.805 35.328-35.313V35.298C639.992 15.8 624.176-.003 604.672 0zm0 0"/></symbol><symbol viewBox="0 0 477.534 477.534" id="heart" xmlns="http://www.w3.org/2000/svg"><path d="M438.482 58.61a130.815 130.815 0 00-95.573-41.711 130.968 130.968 0 00-95.676 41.694l-8.431 8.909-8.431-8.909C181.284 5.762 98.662 2.728 45.832 51.815a130.901 130.901 0 00-6.778 6.778c-52.072 56.166-52.072 142.968 0 199.134l187.358 197.581c6.482 6.843 17.284 7.136 24.127.654.224-.212.442-.43.654-.654l187.29-197.581c52.068-56.16 52.068-142.957-.001-199.117zm-24.695 175.616h-.017L238.802 418.768 63.818 234.226c-39.78-42.916-39.78-109.233 0-152.149 36.125-39.154 97.152-41.609 136.306-5.484a96.482 96.482 0 015.484 5.484l20.804 21.948c6.856 6.812 17.925 6.812 24.781 0l20.804-21.931c36.125-39.154 97.152-41.609 136.306-5.484a96.482 96.482 0 015.484 5.484c40.126 42.984 40.42 109.422 0 152.132z"/></symbol><symbol viewBox="0 0 477.534 477.534" id="heart-filled" xmlns="http://www.w3.org/2000/svg"><path d="M438.482 58.61a130.815 130.815 0 00-95.573-41.711 130.968 130.968 0 00-95.676 41.694l-8.431 8.909-8.431-8.909C181.284 5.762 98.663 2.728 45.832 51.815a130.901 130.901 0 00-6.778 6.778c-52.072 56.166-52.072 142.968 0 199.134l187.358 197.581c6.482 6.843 17.284 7.136 24.127.654.224-.212.442-.43.654-.654l187.29-197.581c52.068-56.16 52.068-142.957-.001-199.117z"/></symbol><symbol viewBox="0 1 511 511.999" id="home" xmlns="http://www.w3.org/2000/svg"><path d="M498.7 222.695c-.016-.011-.028-.027-.04-.039L289.805 13.81C280.902 4.902 269.066 0 256.477 0c-12.59 0-24.426 4.902-33.332 13.809L14.398 222.55c-.07.07-.144.144-.21.215-18.282 18.386-18.25 48.218.09 66.558 8.378 8.383 19.44 13.235 31.273 13.746.484.047.969.07 1.457.07h8.32v153.696c0 30.418 24.75 55.164 55.168 55.164h81.711c8.285 0 15-6.719 15-15V376.5c0-13.879 11.293-25.168 25.172-25.168h48.195c13.88 0 25.168 11.29 25.168 25.168V497c0 8.281 6.715 15 15 15h81.711c30.422 0 55.168-24.746 55.168-55.164V303.14h7.719c12.586 0 24.422-4.903 33.332-13.813 18.36-18.367 18.367-48.254.027-66.633zm-21.243 45.422a17.03 17.03 0 01-12.117 5.024h-22.72c-8.285 0-15 6.714-15 15v168.695c0 13.875-11.289 25.164-25.168 25.164h-66.71V376.5c0-30.418-24.747-55.168-55.169-55.168H232.38c-30.422 0-55.172 24.75-55.172 55.168V482h-66.71c-13.876 0-25.169-11.29-25.169-25.164V288.14c0-8.286-6.715-15-15-15H48a13.9 13.9 0 00-.703-.032c-4.469-.078-8.66-1.851-11.8-4.996-6.68-6.68-6.68-17.55 0-24.234.003 0 .003-.004.007-.008l.012-.012L244.363 35.02A17.003 17.003 0 01256.477 30c4.574 0 8.875 1.781 12.113 5.02l208.8 208.796.098.094c6.645 6.692 6.633 17.54-.031 24.207zm0 0"/></symbol><symbol viewBox="0 0 512 512" id="home-filled" xmlns="http://www.w3.org/2000/svg"><path d="M498.195 222.695l-.035-.035L289.305 13.813C280.402 4.905 268.566 0 255.977 0c-12.59 0-24.426 4.902-33.332 13.809L13.898 222.55c-.07.07-.14.144-.21.215-18.282 18.386-18.25 48.218.09 66.558 8.378 8.383 19.445 13.238 31.277 13.746.48.047.965.07 1.453.07h8.324v153.7C54.832 487.254 79.578 512 110 512h81.71c8.282 0 15-6.715 15-15V376.5c0-13.879 11.29-25.168 25.169-25.168h48.195c13.88 0 25.168 11.29 25.168 25.168V497c0 8.285 6.715 15 15 15h81.711c30.422 0 55.168-24.746 55.168-55.16v-153.7h7.719c12.586 0 24.422-4.902 33.332-13.808 18.36-18.371 18.367-48.254.023-66.637zm0 0"/></symbol><symbol viewBox="0 0 512 512" id="miscellaneous" xmlns="http://www.w3.org/2000/svg"><path d="M512 130.167C512 58.393 453.608 0 381.833 0S251.667 58.393 251.667 130.167c0 55.964 35.502 103.789 85.167 122.145v50.355H298.5v90h38.333v38.667h90v-38.667h38.333v-90h-38.333v-50.355C476.498 233.956 512 186.131 512 130.167zM381.833 64C418.318 64 448 93.683 448 130.167s-29.683 66.167-66.167 66.167-66.167-29.682-66.167-66.167S345.349 64 381.833 64z"/><circle cx="381.833" cy="130.167" r="36.167"/><path d="M175.167 259.689v-50.355H213.5v-90h-38.333V80.667h-90v38.667H46.834v90h38.333v50.355C35.502 278.045 0 325.87 0 381.834 0 453.608 58.393 512 130.167 512s130.166-58.393 130.166-130.166c0-55.964-35.502-103.789-85.166-122.145zm-45 188.311C93.683 448 64 418.318 64 381.834s29.683-66.167 66.167-66.167 66.166 29.682 66.166 66.167S166.651 448 130.167 448z"/><ellipse cx="130.167" cy="381.834" rx="36.167" ry="36.166" transform="rotate(-9.25 130.067 382.33)"/></symbol><symbol viewBox="0 0 512 512" id="settings" xmlns="http://www.w3.org/2000/svg"><path d="M496.659 312.128l-47.061-36.8c.619-5.675 1.109-12.309 1.109-19.328s-.512-13.653-1.109-19.328l47.104-36.821c8.747-6.912 11.157-19.179 5.568-29.397l-48.939-84.672c-5.355-9.749-17.365-14.208-28.309-10.176l-55.531 22.293c-10.624-7.68-21.781-14.165-33.323-19.349l-8.448-58.901C326.334 8.448 316.606 0 305.107 0h-98.133c-11.499 0-21.227 8.448-22.592 19.435l-8.469 59.115c-11.179 5.056-22.165 11.435-33.28 19.371l-55.68-22.357c-10.645-4.16-22.763.235-28.096 10.005l-49.003 84.8c-5.781 9.771-3.413 22.443 5.547 29.525l47.061 36.779c-.747 7.211-1.109 13.461-1.109 19.328s.363 12.117 1.067 19.328l-47.104 36.843C6.59 319.083 4.2 331.349 9.768 341.568l48.939 84.672c5.312 9.728 17.301 14.165 28.309 10.176l55.531-22.293c10.624 7.659 21.803 14.144 33.344 19.349l8.448 58.88c1.387 11.2 11.115 19.648 22.613 19.648h98.133c11.499 0 21.227-8.448 22.592-19.435l8.469-59.093c11.179-5.056 22.165-11.435 33.28-19.371l55.68 22.357c10.603 4.117 22.763-.235 28.096-10.005l49.195-85.099c5.441-9.983 3.051-22.25-5.738-29.226zm-12.907 18.773l-50.816 85.717-61.077-24.533c-3.456-1.387-7.381-.853-10.368 1.365-13.227 9.899-26.005 17.344-39.104 22.699a10.66 10.66 0 00-6.528 8.363l-10.773 66.155-99.563-1.131-9.323-65.003a10.705 10.705 0 00-6.528-8.363c-13.632-5.589-26.752-13.205-39.019-22.635a10.623 10.623 0 00-6.507-2.219c-1.344 0-2.688.235-3.989.768L77.33 415.785l-48.939-84.672c-.448-.832-.363-1.792.149-2.197l51.776-40.469a10.689 10.689 0 004.011-9.728c-1.131-8.939-1.643-16.171-1.643-22.72s.533-13.76 1.643-22.72a10.669 10.669 0 00-4.011-9.728l-52.03-42.431 50.816-85.717 61.077 24.533c3.477 1.408 7.381.875 10.389-1.365 13.205-9.92 26.005-17.344 39.104-22.699a10.703 10.703 0 006.507-8.363l10.795-66.176 99.584 1.152 9.301 65.024a10.705 10.705 0 006.528 8.363c13.611 5.568 26.731 13.184 39.019 22.635 3.008 2.304 6.955 2.859 10.475 1.429l62.827-23.701 48.939 84.672c.448.832.363 1.771-.149 2.176l-51.776 40.469a10.669 10.669 0 00-4.011 9.728c.811 6.485 1.643 14.272 1.643 22.72 0 8.469-.832 16.235-1.643 22.72a10.689 10.689 0 004.011 9.728l51.712 40.448c.553.448.66 1.408.318 2.005z"/><path d="M256.019 149.333c-58.816 0-106.667 47.851-106.667 106.667s47.851 106.667 106.667 106.667S362.686 314.816 362.686 256s-47.851-106.667-106.667-106.667zm0 192c-47.061 0-85.333-38.272-85.333-85.333s38.272-85.333 85.333-85.333 85.333 38.272 85.333 85.333-38.272 85.333-85.333 85.333z"/></symbol><symbol viewBox="0 0 512 512" id="settings-filled" xmlns="http://www.w3.org/2000/svg"><path d="M496.659 312.107l-47.061-36.8c.597-5.675 1.109-12.309 1.109-19.328s-.491-13.653-1.109-19.328l47.104-36.821c8.747-6.912 11.136-19.179 5.568-29.397L453.331 85.76c-5.227-9.557-16.683-14.464-28.309-10.176l-55.531 22.293c-10.645-7.68-21.803-14.165-33.344-19.349l-8.448-58.901C326.312 8.448 316.584 0 305.086 0h-98.133c-11.499 0-21.205 8.448-22.571 19.456l-8.469 59.115c-11.179 5.035-22.165 11.435-33.28 19.349l-55.68-22.357c-10.433-4.032-22.913.49-28.097 10.005L9.854 170.347c-5.781 9.771-3.392 22.464 5.547 29.547l47.061 36.8c-.747 7.189-1.109 13.44-1.109 19.307s.363 12.117 1.109 19.328L15.358 312.15c-8.747 6.933-11.115 19.2-5.547 29.397l48.939 84.672c5.227 9.536 16.576 14.485 28.309 10.176l55.531-22.293c10.624 7.659 21.781 14.144 33.323 19.349l8.448 58.88C185.747 503.552 195.454 512 206.974 512h98.133c11.499 0 21.227-8.448 22.592-19.456l8.469-59.093c11.179-5.056 22.144-11.435 33.28-19.371l55.68 22.357a22.924 22.924 0 008.363 1.579c8.277 0 15.893-4.523 19.733-11.563l49.152-85.12c5.462-9.984 3.072-22.25-5.717-29.226zm-240.64 29.226c-47.061 0-85.333-38.272-85.333-85.333s38.272-85.333 85.333-85.333 85.333 38.272 85.333 85.333-38.272 85.333-85.333 85.333z"/></symbol><symbol viewBox="0 0 511.808 511.808" id="shopping-bag" xmlns="http://www.w3.org/2000/svg"><path d="M477.511 491.424l-26.48-348.832c-.624-8.336-7.584-14.784-15.952-14.784H76.391c-8.368 0-15.328 6.448-15.952 14.8l-26.704 352a16.013 16.013 0 004.224 12.08 15.996 15.996 0 0011.728 5.12h412.432c8.832 0 16-7.168 16-16.016 0-1.504-.208-2.976-.608-4.368zM66.935 479.808l24.288-320h329.024l24.288 320h-377.6z"/><path d="M255.735 0c-70.576 0-128 57.44-128 128.032v63.776c0 8.832 7.168 16 16 16s16-7.168 16-16v-63.776c0-52.96 43.056-96.032 96-96.032s96 43.072 96 96.032v63.776c0 8.832 7.168 16 16 16s16-7.168 16-16v-63.776C383.735 57.44 326.311 0 255.735 0z"/></symbol><symbol viewBox="0 0 512 512" id="shopping-bag-filled" xmlns="http://www.w3.org/2000/svg"><path d="M447.988 139.696A4 4 0 00444 136h-72v-20C372 52.036 319.96 0 256 0S140 52.036 140 116v20H68a4 4 0 00-3.988 3.696l-28 368a3.988 3.988 0 001.056 3.02A3.988 3.988 0 0040 512h432a4 4 0 003.988-4.3l-28-368.004zM172 116c0-46.316 37.68-84 84-84s84 37.684 84 84v20H172v-20zm-16 132c-22.06 0-40-17.944-40-40 0-15.964 8-30.348 24-36.66V208c0 8.824 7.18 16 16 16s16-7.176 16-16v-36.636c16 6.312 24 20.804 24 36.636 0 22.056-17.94 40-40 40zm200 0c-22.06 0-40-17.944-40-40 0-15.964 8-30.348 24-36.66V208c0 8.824 7.18 16 16 16s16-7.176 16-16v-36.636c16 6.312 24 20.804 24 36.636 0 22.056-17.94 40-40 40z"/></symbol><symbol viewBox="0 0 512.002 512.002" id="social-care" xmlns="http://www.w3.org/2000/svg"><path d="M109.834 496.21l-15.055-21.206c-3.196-4.504-9.439-5.563-13.943-2.366-4.503 3.197-5.563 9.439-2.365 13.943l15.055 21.207a9.986 9.986 0 008.163 4.212c2.002 0 4.023-.6 5.78-1.847 4.503-3.197 5.563-9.439 2.365-13.943zm115.372 3.736l-16.384-78.088c-7.967-37.972-30.087-70.806-62.283-92.455l-34.981-23.522c-14.027-9.43-32.881-7.402-44.605 4.553V189.938c0-15.816-10.783-29.254-26.223-32.681-9.965-2.214-20.243.184-28.204 6.571-7.96 6.387-12.525 15.904-12.525 26.11V344.99c0 20.313 6.216 39.806 17.975 56.371l17.833 25.121a9.986 9.986 0 008.163 4.212c2.002 0 4.023-.6 5.78-1.847 4.503-3.197 5.563-9.439 2.365-13.943l-17.833-25.121c-9.344-13.163-14.283-28.652-14.283-44.794V189.938c0-4.108 1.838-7.939 5.042-10.511a13.408 13.408 0 0111.354-2.645c6.215 1.379 10.556 6.789 10.556 13.156v123.016c0 17.414 6.398 34.005 18.021 46.913.498.597 1.01 1.188 1.551 1.761 6.641 7.037 14.449 15.329 21.803 23.145l10.295 10.957c.033.035.069.065.103.099 8.807 9.367 15.302 16.284 15.438 16.428 3.779 4.025 10.109 4.225 14.135.444s4.225-10.109.443-14.135c-.182-.194-11.888-12.659-25.256-26.868l-22.929-24.403c-.058-.062-.111-.127-.169-.189-5.376-6.43-5.309-15.753.326-22.115 4.985-5.626 13.449-6.706 19.686-2.513L135.379 346c27.848 18.725 46.979 47.123 53.869 79.965l16.385 78.089c.989 4.713 5.146 7.948 9.777 7.948.68 0 1.371-.07 2.063-.215 5.405-1.134 8.867-6.436 7.733-11.841z"/><path d="M74.089 445.858l-.064-.09c-3.21-4.496-9.454-5.54-13.949-2.332s-5.539 9.453-2.332 13.948l.064.09a9.989 9.989 0 008.149 4.193c2.01 0 4.039-.604 5.8-1.861 4.494-3.208 5.539-9.453 2.332-13.948zm425.386-282.029c-7.96-6.387-18.243-8.781-28.203-6.571-15.44 3.426-26.224 16.865-26.224 32.681v120.496c-11.723-11.955-30.579-13.983-44.605-4.553l-34.981 23.521c-32.197 21.648-54.316 54.483-62.283 92.455l-16.384 78.089c-1.134 5.405 2.328 10.706 7.733 11.84.692.145 1.384.215 2.063.215 4.632 0 8.788-3.236 9.777-7.949l16.384-78.089c6.891-32.841 26.021-61.24 53.869-79.964l34.981-23.521c6.235-4.194 14.699-3.114 19.686 2.512 5.628 6.354 5.703 15.662.347 22.092-.064.07-.125.142-.189.212l-48.186 51.271c-3.781 4.026-3.582 10.354.443 14.135 4.026 3.781 10.354 3.582 14.135-.444.136-.144 40.998-43.591 47.639-50.628a38.145 38.145 0 001.551-1.761c11.622-12.908 18.021-29.499 18.021-46.913V189.938c0-6.367 4.341-11.777 10.557-13.156 4.013-.89 8.149.075 11.354 2.645a13.413 13.413 0 015.042 10.511V344.99c0 16.142-4.939 31.631-14.283 44.794l-75.551 106.427c-3.197 4.503-2.138 10.746 2.365 13.943a9.958 9.958 0 005.78 1.847 9.99 9.99 0 008.163-4.212l75.551-106.427c11.759-16.565 17.975-36.058 17.975-56.371V189.938c-.003-10.206-4.567-19.722-12.527-26.109z"/><path d="M382.658 191.66l-17.791-4.25v-3.19c11.563-8.1 19.145-21.513 19.145-36.671V124.42c0-24.679-20.077-44.756-44.756-44.756-11.075 0-21.215 4.052-29.038 10.74C301.508 69.074 280.55 54 256.126 54c-24.454 0-45.434 15.113-54.124 36.484-7.835-6.736-18.012-10.822-29.132-10.822-24.679 0-44.756 20.077-44.756 44.756v23.129c0 15.158 7.582 28.571 19.145 36.671v3.19l-17.791 4.25c-21.242 5.075-36.078 23.872-36.078 45.712v18.676c0 5.523 4.478 10 10 10h45.952a62.577 62.577 0 00-.12 3.661v35.958c0 5.523 4.478 10 10 10h60.11c5.522 0 10-4.477 10-10s-4.478-10-10-10H209V275c0-5.523-4.478-10-10-10s-10 4.477-10 10v20.667h-19.777v-25.958c0-19.287 13.1-35.896 31.854-40.39l27.442-6.576 18.365 41.782a10 10 0 009.153 5.976h.001a10 10 0 009.154-5.975l18.346-41.72 27.355 6.535c18.772 4.485 31.883 21.096 31.883 40.397v25.929h-19.777V275c0-5.523-4.478-10-10-10s-10 4.477-10 10v20.667h-11.333c-5.522 0-10 4.477-10 10s4.478 10 10 10h61.111c5.522 0 10-4.477 10-10v-35.929c0-1.239-.05-2.467-.122-3.69h46.082c5.522 0 10-4.477 10-10v-18.676c0-21.84-14.836-40.638-36.079-45.712zm-43.402-91.998c13.102 0 23.858 10.231 24.702 23.123h-13.903a72.889 72.889 0 01-33.529-8.172c3.803-8.788 12.561-14.951 22.73-14.951zM314.5 146.087c.012-.487.037-.972.037-1.462v-8.906a92.891 92.891 0 0035.518 7.066h13.957v4.763c0 13.65-11.105 24.756-24.756 24.756S314.5 161.198 314.5 147.547v-1.46zm-96.784-33.677c0-21.179 17.23-38.41 38.41-38.41 19.103 0 34.992 14.018 37.926 32.306l-16.835-9.891a9.998 9.998 0 00-12.73 2.2 43.084 43.084 0 01-33.102 15.449h-13.669v-1.654zm-44.845-12.748c10.169 0 18.926 6.164 22.73 14.95a72.892 72.892 0 01-33.529 8.172h-13.903c.844-12.891 11.601-23.122 24.702-23.122zm-24.756 43.122h13.957a92.895 92.895 0 0035.555-7.081v11.843c0 13.65-11.105 24.756-24.756 24.756s-24.756-11.104-24.756-24.755v-4.763zm48.302 67.085c-19.674 4.714-35.136 18.431-42.495 36.178H113.39v-8.676a26.911 26.911 0 0120.725-26.26l25.468-6.084a10 10 0 007.677-9.726v-3.362c1.84.231 3.71.364 5.611.364 1.887 0 3.744-.131 5.57-.359v2.853a9.992 9.992 0 004.562 8.858 9.951 9.951 0 003.553 1.428l14.917 3.574-5.056 1.212zm27.894-15.524a46.92 46.92 0 00-8.007-2.7l-17.864-4.281v-3.116a45.122 45.122 0 008.667-7.918 58.871 58.871 0 0017.204 17.244v.771zm43.432 14.693l-11.702 26.615-11.729-26.683v-7.136a58.455 58.455 0 0011.814 1.202 58.45 58.45 0 0011.617-1.164v7.166zm-11.617-26.003c-21.18.001-38.41-17.23-38.41-38.41v-10.562h13.669c15.858 0 30.936-5.897 42.492-16.415l20.622 12.116v16.324c-.772 20.503-17.683 36.947-38.373 36.947zm31.617 11.342v-.677a58.851 58.851 0 0017.347-17.286 45.113 45.113 0 008.594 7.834v3.116l-17.865 4.281a47.089 47.089 0 00-8.076 2.732zm110.993 51.67h-40.67c-7.366-17.747-22.839-31.456-42.525-36.159l-5.021-1.199 14.997-3.594a9.987 9.987 0 003.605-1.44 9.991 9.991 0 004.562-8.643v-3.068c1.827.228 3.683.359 5.57.359a44.99 44.99 0 005.611-.364v3.362a10 10 0 007.677 9.726l25.468 6.084a26.913 26.913 0 0120.726 26.26v8.676z"/><path d="M263.069 298.59a10.08 10.08 0 00-7.069-2.92c-2.641 0-5.21 1.06-7.07 2.92a10.056 10.056 0 00-2.93 7.08c0 2.63 1.06 5.2 2.93 7.07 1.86 1.86 4.43 2.93 7.07 2.93 2.63 0 5.2-1.07 7.069-2.93a10.094 10.094 0 002.931-7.07c0-2.64-1.07-5.21-2.931-7.08zM255.993 0c-5.522 0-10 4.477-10 10v14.963c0 5.523 4.478 10 10 10s10-4.477 10-10V10c0-5.523-4.477-10-10-10zm-36.836 32.619l-10.49-10.48c-3.907-3.904-10.238-3.901-14.142.006-3.904 3.907-3.9 10.239.007 14.142l10.491 10.48a9.966 9.966 0 007.067 2.926 9.97 9.97 0 007.074-2.932c3.902-3.907 3.9-10.239-.007-14.142zm98.065-10.224c-3.907-3.903-10.24-3.901-14.142.007l-10.409 10.419c-3.903 3.907-3.9 10.239.007 14.142a9.968 9.968 0 007.068 2.926 9.966 9.966 0 007.074-2.933l10.409-10.419c3.903-3.907 3.9-10.239-.007-14.142z"/></symbol><symbol viewBox="0 0 512.418 512.418" id="www" xmlns="http://www.w3.org/2000/svg"><path d="M437.335 75.082c-100.1-100.102-262.136-100.118-362.252 0-100.103 100.102-100.118 262.136 0 362.253 100.1 100.102 262.136 100.117 362.252 0 100.103-100.102 100.117-262.136 0-362.253zm-10.706 325.739c-11.968-10.702-24.77-20.173-38.264-28.335 8.919-30.809 14.203-64.712 15.452-99.954h75.309c-3.405 47.503-21.657 92.064-52.497 128.289zM33.291 272.532H108.6c1.249 35.242 6.533 69.145 15.452 99.954-13.494 8.162-26.296 17.633-38.264 28.335-30.84-36.225-49.091-80.786-52.497-128.289zm52.498-160.936c11.968 10.702 24.77 20.173 38.264 28.335-8.919 30.809-14.203 64.712-15.452 99.954h-75.31c3.406-47.502 21.657-92.063 52.498-128.289zm154.097 31.709c-26.622-1.904-52.291-8.461-76.088-19.278 13.84-35.639 39.354-78.384 76.088-88.977zm0 32.708v63.873h-98.625c1.13-29.812 5.354-58.439 12.379-84.632 27.043 11.822 56.127 18.882 86.246 20.759zm0 96.519v63.873c-30.119 1.877-59.203 8.937-86.246 20.759-7.025-26.193-11.249-54.82-12.379-84.632zm0 96.581v108.254c-36.732-10.593-62.246-53.333-76.088-88.976 23.797-10.817 49.466-17.374 76.088-19.278zm32.646 0c26.622 1.904 52.291 8.461 76.088 19.278-13.841 35.64-39.354 78.383-76.088 88.976zm0-32.708v-63.873h98.625c-1.13 29.812-5.354 58.439-12.379 84.632-27.043-11.822-56.127-18.882-86.246-20.759zm0-96.519v-63.873c30.119-1.877 59.203-8.937 86.246-20.759 7.025 26.193 11.249 54.82 12.379 84.632zm0-96.581V35.051c36.734 10.593 62.248 53.338 76.088 88.977-23.797 10.816-49.466 17.373-76.088 19.277zm73.32-91.957c20.895 9.15 40.389 21.557 57.864 36.951a224.359 224.359 0 01-26.26 19.931c-8.139-20.152-18.536-39.736-31.604-56.882zM134.961 108.23a224.442 224.442 0 01-26.26-19.931c17.475-15.394 36.969-27.801 57.864-36.951-13.068 17.148-23.465 36.732-31.604 56.882zm.001 295.958c8.138 20.151 18.537 39.736 31.604 56.882-20.895-9.15-40.389-21.557-57.864-36.951a224.359 224.359 0 0126.26-19.931zm242.494 0a224.46 224.46 0 0126.26 19.93c-17.475 15.394-36.969 27.801-57.864 36.951 13.067-17.144 23.465-36.729 31.604-56.881zm26.362-164.302c-1.249-35.242-6.533-69.146-15.452-99.954 13.494-8.162 26.295-17.633 38.264-28.335 30.84 36.225 49.091 80.786 52.497 128.289z"/></symbol></svg>